<?xml version="1.0" encoding="UTF-8"?>
<svg width="280px" height="280px" viewBox="0 0 280 280" version="1.1" xmlns="http://www.w3.org/2000/svg" xmlns:xlink="http://www.w3.org/1999/xlink">
    <title>Artboard</title>
    <g id="Artboard" stroke="none" stroke-width="1" fill="none" fill-rule="evenodd">
        <g id="Group" transform="translate(56.000000, 15.000000)" fill="#646cff" fill-rule="nonzero">
            <path d="M88.0426218,68.067 C88.6606218,74.882 88.3576218,82.048 88.3196218,88.918 L88.2346218,136.148 C88.2006218,140.318 87.0036218,162.424 89.1776218,166.9 C91.1336218,170.926 99.4446218,168.001 99.2396218,161.976 C99.2056218,160.982 100.292622,153.428 99.9426218,151.821 C100.860622,140.408 99.7866218,127.371 106.593622,117.536 C119.222622,99.9 139.317622,118.274 137.369622,134.671 C135.981622,146.359 128.960622,157.786 123.961622,168.259 C122.433622,171.461 119.913622,175.403 120.219622,179.023 C120.284622,179.788 121.039622,179.929 121.710622,180.319 C129.292622,180.156 131.088622,160.444 141.849622,154.443 C161.626622,143.414 173.919622,165.164 166.726622,182.234 C156.867622,205.628 131.363622,234.461 107.919622,245.494 C91.7176218,252.102 74.9546218,252.655 58.2206218,246.334 C36.8646218,238.266 13.2236218,215.903 2.26462182,196.086 C-2.46937818,187.524 0.320621816,177.811 9.67862182,174.03 C27.3476218,166.89 30.8156218,194.067 36.4486218,196.455 C38.0996218,196.19 37.3826218,196.537 38.6126218,195.267 C38.5456218,190.204 34.9656218,181.858 33.3766218,176.76 C30.4986218,168.004 28.1016218,160.207 26.0996218,151.129 C21.8236218,131.749 37.2426218,116.145 55.1486218,129.189 C62.6226218,134.351 65.4166218,149.595 64.8706218,158.23 C64.2396218,168.2 73.9596218,172.211 76.3676218,165.813 C78.3686218,160.5 77.5226218,144.047 77.4626218,137.432 L77.4716218,92.042 C77.4606218,84.261 77.3066218,75.857 77.6966218,68.059 C77.7616218,66.75 78.4626218,65.788 79.2586218,64.808 C81.8896218,64.672 87.6846218,64.122 88.0426218,68.067 Z" id="Path"></path>
            <path d="M41.9736218,0.099 C43.7016218,0.621 45.6996218,3.715 46.7986218,5.225 C42.0976218,9.343 36.4756218,14.264 33.2076218,19.622 C26.7926218,30.135 25.2456218,43.93 28.1136218,55.802 C30.6203566,66.2996869 37.1796203,75.3787576 46.3586218,81.056 C45.2566218,82.524 43.3616218,84.492 42.0846218,85.902 L41.3026218,86.142 C38.7736218,84.895 37.2976218,83.61 35.2456218,81.747 C14.3876218,62.809 12.9066218,29.053 32.2496218,8.504 C35.4016218,5.156 38.2246218,2.886 41.9736218,0.099" id="Path"></path>
            <path d="M123.881622,-5.68434189e-14 C128.621622,1.973 137.283622,12.562 140.103622,17.121 C153.885622,39.393 147.225622,72.279 124.317622,86.277 L119.856622,81.204 C146.706622,58.387 146.616622,27.375 119.258622,5.037 L123.881622,-5.68434189e-14 Z" id="Path"></path>
            <path d="M78.9556218,30.261 C83.8137567,28.7348011 89.1172874,29.9382862 92.8408663,33.4118605 C96.5644451,36.8854347 98.1330386,42.0926728 96.9476218,47.045 C95.7611463,51.9978542 92.0028186,55.929984 87.1086218,57.339 C79.6686218,59.481 71.8896218,55.241 69.6576218,47.828 C67.4246218,40.414 71.5696218,32.584 78.9556218,30.261" id="Path"></path>
            <path d="M109.007622,15.103 C111.885622,15.822 117.214622,22.556 119.004622,25.03 C125.709622,34.294 126.811622,46.701 121.843622,57.009 C119.625622,61.612 114.613622,68.34 110.323622,71.22 L109.508622,70.708 C108.040622,69.328 106.481622,67.693 105.041622,66.252 C120.668622,51.167 122.359622,33.706 103.715622,20.064 C105.321622,18.427 107.305622,16.679 109.007622,15.103" id="Path"></path>
            <path d="M56.8026218,15.018 C58.5446218,15.699 60.4596218,18.238 61.7216218,19.709 C45.9746218,34.445 41.9396218,51.702 61.1696218,66.186 L56.6926218,70.291 C56.4476218,70.499 55.8746218,70.724 55.5506218,70.875 C45.3596218,65.041 39.2746218,50.64 41.3416218,39.178 C43.3016218,28.313 48.0886218,21.468 56.8026218,15.018" id="Path"></path>
        </g>
    </g>
</svg>